<mxfile host="Electron" agent="Mozilla/5.0 (Windows NT 10.0; Win64; x64) AppleWebKit/537.36 (KHTML, like Gecko) draw.io/24.7.8 Chrome/128.0.6613.36 Electron/32.0.1 Safari/537.36" version="24.7.8">
  <diagram name="Page-1" id="gfB3oqhTUgZLcfx7qufS">
    <mxGraphModel dx="178" dy="107" grid="1" gridSize="10" guides="1" tooltips="1" connect="1" arrows="1" fold="1" page="1" pageScale="1" pageWidth="2336" pageHeight="1654" math="0" shadow="0">
      <root>
        <mxCell id="0" />
        <mxCell id="1" parent="0" />
        <mxCell id="X7ifO9zD-XdO2jN4TMSY-86" value="" style="endArrow=none;dashed=1;html=1;rounded=0;strokeColor=#7A7A7A;" edge="1" parent="1">
          <mxGeometry width="50" height="50" relative="1" as="geometry">
            <mxPoint x="530" y="200" as="sourcePoint" />
            <mxPoint x="530" y="890" as="targetPoint" />
          </mxGeometry>
        </mxCell>
        <mxCell id="X7ifO9zD-XdO2jN4TMSY-87" value="" style="endArrow=none;dashed=1;html=1;rounded=0;strokeColor=#7A7A7A;" edge="1" parent="1">
          <mxGeometry width="50" height="50" relative="1" as="geometry">
            <mxPoint x="733" y="200" as="sourcePoint" />
            <mxPoint x="733" y="890" as="targetPoint" />
          </mxGeometry>
        </mxCell>
        <mxCell id="X7ifO9zD-XdO2jN4TMSY-66" value="" style="group" vertex="1" connectable="0" parent="1">
          <mxGeometry x="427.5" y="815" width="5" height="45" as="geometry" />
        </mxCell>
        <mxCell id="X7ifO9zD-XdO2jN4TMSY-62" value="" style="ellipse;whiteSpace=wrap;html=1;aspect=fixed;fillColor=#000000;" vertex="1" parent="X7ifO9zD-XdO2jN4TMSY-66">
          <mxGeometry width="5" height="5" as="geometry" />
        </mxCell>
        <mxCell id="X7ifO9zD-XdO2jN4TMSY-63" value="" style="ellipse;whiteSpace=wrap;html=1;aspect=fixed;fillColor=#000000;" vertex="1" parent="X7ifO9zD-XdO2jN4TMSY-66">
          <mxGeometry y="20" width="5" height="5" as="geometry" />
        </mxCell>
        <mxCell id="X7ifO9zD-XdO2jN4TMSY-65" value="" style="ellipse;whiteSpace=wrap;html=1;aspect=fixed;fillColor=#000000;" vertex="1" parent="X7ifO9zD-XdO2jN4TMSY-66">
          <mxGeometry y="40" width="5" height="5" as="geometry" />
        </mxCell>
        <mxCell id="X7ifO9zD-XdO2jN4TMSY-67" value="" style="group" vertex="1" connectable="0" parent="1">
          <mxGeometry x="637.5" y="815" width="5" height="45" as="geometry" />
        </mxCell>
        <mxCell id="X7ifO9zD-XdO2jN4TMSY-68" value="" style="ellipse;whiteSpace=wrap;html=1;aspect=fixed;fillColor=#000000;" vertex="1" parent="X7ifO9zD-XdO2jN4TMSY-67">
          <mxGeometry width="5" height="5" as="geometry" />
        </mxCell>
        <mxCell id="X7ifO9zD-XdO2jN4TMSY-69" value="" style="ellipse;whiteSpace=wrap;html=1;aspect=fixed;fillColor=#000000;" vertex="1" parent="X7ifO9zD-XdO2jN4TMSY-67">
          <mxGeometry y="20" width="5" height="5" as="geometry" />
        </mxCell>
        <mxCell id="X7ifO9zD-XdO2jN4TMSY-70" value="" style="ellipse;whiteSpace=wrap;html=1;aspect=fixed;fillColor=#000000;" vertex="1" parent="X7ifO9zD-XdO2jN4TMSY-67">
          <mxGeometry y="40" width="5" height="5" as="geometry" />
        </mxCell>
        <mxCell id="X7ifO9zD-XdO2jN4TMSY-71" value="" style="group" vertex="1" connectable="0" parent="1">
          <mxGeometry x="832.5" y="815" width="5" height="45" as="geometry" />
        </mxCell>
        <mxCell id="X7ifO9zD-XdO2jN4TMSY-72" value="" style="ellipse;whiteSpace=wrap;html=1;aspect=fixed;fillColor=#000000;" vertex="1" parent="X7ifO9zD-XdO2jN4TMSY-71">
          <mxGeometry width="5" height="5" as="geometry" />
        </mxCell>
        <mxCell id="X7ifO9zD-XdO2jN4TMSY-73" value="" style="ellipse;whiteSpace=wrap;html=1;aspect=fixed;fillColor=#000000;" vertex="1" parent="X7ifO9zD-XdO2jN4TMSY-71">
          <mxGeometry y="20" width="5" height="5" as="geometry" />
        </mxCell>
        <mxCell id="X7ifO9zD-XdO2jN4TMSY-74" value="" style="ellipse;whiteSpace=wrap;html=1;aspect=fixed;fillColor=#000000;" vertex="1" parent="X7ifO9zD-XdO2jN4TMSY-71">
          <mxGeometry y="40" width="5" height="5" as="geometry" />
        </mxCell>
        <mxCell id="X7ifO9zD-XdO2jN4TMSY-75" value="" style="endArrow=none;html=1;rounded=0;" edge="1" parent="1">
          <mxGeometry width="50" height="50" relative="1" as="geometry">
            <mxPoint x="335" y="279" as="sourcePoint" />
            <mxPoint x="920" y="279" as="targetPoint" />
          </mxGeometry>
        </mxCell>
        <mxCell id="X7ifO9zD-XdO2jN4TMSY-82" value="" style="group" vertex="1" connectable="0" parent="1">
          <mxGeometry x="335" y="200" width="190" height="585" as="geometry" />
        </mxCell>
        <mxCell id="X7ifO9zD-XdO2jN4TMSY-58" value="" style="group" vertex="1" connectable="0" parent="X7ifO9zD-XdO2jN4TMSY-82">
          <mxGeometry y="96" width="190" height="240" as="geometry" />
        </mxCell>
        <mxCell id="X7ifO9zD-XdO2jN4TMSY-38" value="" style="shape=curlyBracket;whiteSpace=wrap;html=1;rounded=1;labelPosition=left;verticalLabelPosition=middle;align=right;verticalAlign=middle;gradientDirection=south;strokeColor=#2BB88D;strokeWidth=2;" vertex="1" parent="X7ifO9zD-XdO2jN4TMSY-58">
          <mxGeometry x="170" width="20" height="240" as="geometry" />
        </mxCell>
        <mxCell id="X7ifO9zD-XdO2jN4TMSY-47" value="&lt;font style=&quot;font-size: 16px;&quot;&gt;embedding 1,2,3,4,5,6&lt;/font&gt;" style="rounded=0;whiteSpace=wrap;html=1;fillStyle=cross-hatch;gradientColor=#DAE8FC;fillColor=#D5E8D4;strokeColor=#2BB88D;" vertex="1" parent="X7ifO9zD-XdO2jN4TMSY-58">
          <mxGeometry y="100" width="170" height="40" as="geometry" />
        </mxCell>
        <mxCell id="X7ifO9zD-XdO2jN4TMSY-59" value="" style="group" vertex="1" connectable="0" parent="X7ifO9zD-XdO2jN4TMSY-82">
          <mxGeometry y="345" width="190" height="240" as="geometry" />
        </mxCell>
        <mxCell id="X7ifO9zD-XdO2jN4TMSY-40" value="" style="shape=curlyBracket;whiteSpace=wrap;html=1;rounded=1;labelPosition=left;verticalLabelPosition=middle;align=right;verticalAlign=middle;strokeColor=#B3812B;strokeWidth=2;" vertex="1" parent="X7ifO9zD-XdO2jN4TMSY-59">
          <mxGeometry x="170" width="20" height="240" as="geometry" />
        </mxCell>
        <mxCell id="X7ifO9zD-XdO2jN4TMSY-49" value="&lt;font style=&quot;font-size: 16px;&quot;&gt;embedding 7,8,9,10,11,12&lt;/font&gt;" style="rounded=0;whiteSpace=wrap;html=1;gradientColor=#F8CECC;fillColor=#FFF2CC;strokeColor=#B3812B;" vertex="1" parent="X7ifO9zD-XdO2jN4TMSY-59">
          <mxGeometry y="100" width="170" height="40" as="geometry" />
        </mxCell>
        <mxCell id="X7ifO9zD-XdO2jN4TMSY-88" value="" style="group" vertex="1" connectable="0" parent="X7ifO9zD-XdO2jN4TMSY-82">
          <mxGeometry x="25" width="140" height="60" as="geometry" />
        </mxCell>
        <mxCell id="X7ifO9zD-XdO2jN4TMSY-80" value="&lt;span style=&quot;font-size: 16px;&quot;&gt;Level 1&lt;/span&gt;" style="rounded=0;whiteSpace=wrap;html=1;" vertex="1" parent="X7ifO9zD-XdO2jN4TMSY-88">
          <mxGeometry width="140" height="30" as="geometry" />
        </mxCell>
        <mxCell id="X7ifO9zD-XdO2jN4TMSY-77" value="&lt;font style=&quot;font-size: 16px;&quot;&gt;Chunk Size = 512&lt;/font&gt;" style="rounded=0;whiteSpace=wrap;html=1;" vertex="1" parent="X7ifO9zD-XdO2jN4TMSY-88">
          <mxGeometry y="30" width="140" height="30" as="geometry" />
        </mxCell>
        <mxCell id="X7ifO9zD-XdO2jN4TMSY-83" value="" style="group" vertex="1" connectable="0" parent="1">
          <mxGeometry x="545" y="200" width="190" height="585" as="geometry" />
        </mxCell>
        <mxCell id="X7ifO9zD-XdO2jN4TMSY-53" value="" style="group" vertex="1" connectable="0" parent="X7ifO9zD-XdO2jN4TMSY-83">
          <mxGeometry y="96" width="190" height="120" as="geometry" />
        </mxCell>
        <mxCell id="X7ifO9zD-XdO2jN4TMSY-34" value="" style="shape=curlyBracket;whiteSpace=wrap;html=1;rounded=1;labelPosition=left;verticalLabelPosition=middle;align=right;verticalAlign=middle;fillColor=default;strokeColor=#82b366;strokeWidth=2;" vertex="1" parent="X7ifO9zD-XdO2jN4TMSY-53">
          <mxGeometry x="170" width="20" height="120" as="geometry" />
        </mxCell>
        <mxCell id="X7ifO9zD-XdO2jN4TMSY-39" value="&lt;font style=&quot;font-size: 16px;&quot;&gt;embedding 1,2,3&lt;/font&gt;" style="rounded=0;whiteSpace=wrap;html=1;fillColor=#d5e8d4;strokeColor=#82b366;" vertex="1" parent="X7ifO9zD-XdO2jN4TMSY-53">
          <mxGeometry y="40" width="170" height="40" as="geometry" />
        </mxCell>
        <mxCell id="X7ifO9zD-XdO2jN4TMSY-54" value="" style="group" vertex="1" connectable="0" parent="X7ifO9zD-XdO2jN4TMSY-83">
          <mxGeometry y="219" width="190" height="120" as="geometry" />
        </mxCell>
        <mxCell id="X7ifO9zD-XdO2jN4TMSY-35" value="" style="shape=curlyBracket;whiteSpace=wrap;html=1;rounded=1;labelPosition=left;verticalLabelPosition=middle;align=right;verticalAlign=middle;fillColor=#dae8fc;strokeColor=#6c8ebf;strokeWidth=2;" vertex="1" parent="X7ifO9zD-XdO2jN4TMSY-54">
          <mxGeometry x="170" width="20" height="120" as="geometry" />
        </mxCell>
        <mxCell id="X7ifO9zD-XdO2jN4TMSY-41" value="&lt;font style=&quot;font-size: 16px;&quot;&gt;embedding 4,5,6&lt;/font&gt;" style="rounded=0;whiteSpace=wrap;html=1;fillColor=#dae8fc;strokeColor=#6c8ebf;" vertex="1" parent="X7ifO9zD-XdO2jN4TMSY-54">
          <mxGeometry y="40" width="170" height="40" as="geometry" />
        </mxCell>
        <mxCell id="X7ifO9zD-XdO2jN4TMSY-55" value="" style="group" vertex="1" connectable="0" parent="X7ifO9zD-XdO2jN4TMSY-83">
          <mxGeometry y="342" width="190" height="120" as="geometry" />
        </mxCell>
        <mxCell id="X7ifO9zD-XdO2jN4TMSY-36" value="" style="shape=curlyBracket;whiteSpace=wrap;html=1;rounded=1;labelPosition=left;verticalLabelPosition=middle;align=right;verticalAlign=middle;fillColor=#fff2cc;strokeColor=#d6b656;strokeWidth=2;" vertex="1" parent="X7ifO9zD-XdO2jN4TMSY-55">
          <mxGeometry x="170" width="20" height="120" as="geometry" />
        </mxCell>
        <mxCell id="X7ifO9zD-XdO2jN4TMSY-42" value="&lt;font style=&quot;font-size: 16px;&quot;&gt;embedding 7,8,9&lt;/font&gt;" style="rounded=0;whiteSpace=wrap;html=1;fillColor=#fff2cc;strokeColor=#d6b656;" vertex="1" parent="X7ifO9zD-XdO2jN4TMSY-55">
          <mxGeometry y="40" width="170" height="40" as="geometry" />
        </mxCell>
        <mxCell id="X7ifO9zD-XdO2jN4TMSY-56" value="" style="group" vertex="1" connectable="0" parent="X7ifO9zD-XdO2jN4TMSY-83">
          <mxGeometry y="465" width="190" height="120" as="geometry" />
        </mxCell>
        <mxCell id="X7ifO9zD-XdO2jN4TMSY-37" value="" style="shape=curlyBracket;whiteSpace=wrap;html=1;rounded=1;labelPosition=left;verticalLabelPosition=middle;align=right;verticalAlign=middle;fillColor=#f8cecc;strokeColor=#b85450;strokeWidth=2;" vertex="1" parent="X7ifO9zD-XdO2jN4TMSY-56">
          <mxGeometry x="170" width="20" height="120" as="geometry" />
        </mxCell>
        <mxCell id="X7ifO9zD-XdO2jN4TMSY-43" value="&lt;font style=&quot;font-size: 16px;&quot;&gt;embedding 10,11,12&lt;/font&gt;" style="rounded=0;whiteSpace=wrap;html=1;fillColor=#f8cecc;strokeColor=#b85450;" vertex="1" parent="X7ifO9zD-XdO2jN4TMSY-56">
          <mxGeometry y="40" width="170" height="40" as="geometry" />
        </mxCell>
        <mxCell id="X7ifO9zD-XdO2jN4TMSY-89" value="" style="group" vertex="1" connectable="0" parent="X7ifO9zD-XdO2jN4TMSY-83">
          <mxGeometry x="15" width="140" height="60" as="geometry" />
        </mxCell>
        <mxCell id="X7ifO9zD-XdO2jN4TMSY-81" value="&lt;span style=&quot;font-size: 16px;&quot;&gt;Level 2&lt;/span&gt;" style="rounded=0;whiteSpace=wrap;html=1;" vertex="1" parent="X7ifO9zD-XdO2jN4TMSY-89">
          <mxGeometry width="140" height="30" as="geometry" />
        </mxCell>
        <mxCell id="X7ifO9zD-XdO2jN4TMSY-78" value="&lt;font style=&quot;font-size: 16px;&quot;&gt;Chunk Size = 256&lt;/font&gt;" style="rounded=0;whiteSpace=wrap;html=1;" vertex="1" parent="X7ifO9zD-XdO2jN4TMSY-89">
          <mxGeometry y="30" width="140" height="30" as="geometry" />
        </mxCell>
        <mxCell id="X7ifO9zD-XdO2jN4TMSY-85" value="" style="group" vertex="1" connectable="0" parent="1">
          <mxGeometry x="750" y="200" width="170" height="580" as="geometry" />
        </mxCell>
        <mxCell id="X7ifO9zD-XdO2jN4TMSY-3" value="" style="shape=table;startSize=0;container=1;collapsible=0;childLayout=tableLayout;fontSize=16;rounded=0;absoluteArcSize=0;arcSize=15;shadow=0;rowLines=1;strokeColor=default;" vertex="1" parent="X7ifO9zD-XdO2jN4TMSY-85">
          <mxGeometry y="100" width="170" height="480" as="geometry" />
        </mxCell>
        <mxCell id="X7ifO9zD-XdO2jN4TMSY-4" value="" style="shape=tableRow;horizontal=0;startSize=0;swimlaneHead=0;swimlaneBody=0;strokeColor=inherit;top=0;left=0;bottom=0;right=0;collapsible=0;dropTarget=0;fillColor=none;points=[[0,0.5],[1,0.5]];portConstraint=eastwest;fontSize=16;" vertex="1" parent="X7ifO9zD-XdO2jN4TMSY-3">
          <mxGeometry width="170" height="40" as="geometry" />
        </mxCell>
        <object label="embedding 1" id="X7ifO9zD-XdO2jN4TMSY-5">
          <mxCell style="shape=partialRectangle;html=1;whiteSpace=wrap;connectable=0;strokeColor=#82b366;overflow=hidden;fillColor=#d5e8d4;top=0;left=0;bottom=0;right=0;pointerEvents=1;fontSize=16;rounded=1;absoluteArcSize=0;arcSize=15" vertex="1" parent="X7ifO9zD-XdO2jN4TMSY-4">
            <mxGeometry width="170" height="40" as="geometry">
              <mxRectangle width="170" height="40" as="alternateBounds" />
            </mxGeometry>
          </mxCell>
        </object>
        <mxCell id="X7ifO9zD-XdO2jN4TMSY-8" value="" style="shape=tableRow;horizontal=0;startSize=0;swimlaneHead=0;swimlaneBody=0;strokeColor=inherit;top=0;left=0;bottom=0;right=0;collapsible=0;dropTarget=0;fillColor=none;points=[[0,0.5],[1,0.5]];portConstraint=eastwest;fontSize=16;" vertex="1" parent="X7ifO9zD-XdO2jN4TMSY-3">
          <mxGeometry y="40" width="170" height="40" as="geometry" />
        </mxCell>
        <mxCell id="X7ifO9zD-XdO2jN4TMSY-9" value="embedding 2" style="shape=partialRectangle;html=1;whiteSpace=wrap;connectable=0;strokeColor=#82b366;overflow=hidden;fillColor=#d5e8d4;top=0;left=0;bottom=0;right=0;pointerEvents=1;fontSize=16;" vertex="1" parent="X7ifO9zD-XdO2jN4TMSY-8">
          <mxGeometry width="170" height="40" as="geometry">
            <mxRectangle width="170" height="40" as="alternateBounds" />
          </mxGeometry>
        </mxCell>
        <mxCell id="X7ifO9zD-XdO2jN4TMSY-12" value="" style="shape=tableRow;horizontal=0;startSize=0;swimlaneHead=0;swimlaneBody=0;strokeColor=inherit;top=0;left=0;bottom=0;right=0;collapsible=0;dropTarget=0;fillColor=none;points=[[0,0.5],[1,0.5]];portConstraint=eastwest;fontSize=16;" vertex="1" parent="X7ifO9zD-XdO2jN4TMSY-3">
          <mxGeometry y="80" width="170" height="40" as="geometry" />
        </mxCell>
        <mxCell id="X7ifO9zD-XdO2jN4TMSY-13" value="embedding 3" style="shape=partialRectangle;html=1;whiteSpace=wrap;connectable=0;strokeColor=#82b366;overflow=hidden;fillColor=#d5e8d4;top=0;left=0;bottom=0;right=0;pointerEvents=1;fontSize=16;" vertex="1" parent="X7ifO9zD-XdO2jN4TMSY-12">
          <mxGeometry width="170" height="40" as="geometry">
            <mxRectangle width="170" height="40" as="alternateBounds" />
          </mxGeometry>
        </mxCell>
        <mxCell id="X7ifO9zD-XdO2jN4TMSY-32" style="shape=tableRow;horizontal=0;startSize=0;swimlaneHead=0;swimlaneBody=0;strokeColor=inherit;top=0;left=0;bottom=0;right=0;collapsible=0;dropTarget=0;fillColor=none;points=[[0,0.5],[1,0.5]];portConstraint=eastwest;fontSize=16;" vertex="1" parent="X7ifO9zD-XdO2jN4TMSY-3">
          <mxGeometry y="120" width="170" height="40" as="geometry" />
        </mxCell>
        <mxCell id="X7ifO9zD-XdO2jN4TMSY-33" value="embedding 4" style="shape=partialRectangle;html=1;whiteSpace=wrap;connectable=0;strokeColor=#6c8ebf;overflow=hidden;fillColor=#dae8fc;top=0;left=0;bottom=0;right=0;pointerEvents=1;fontSize=16;" vertex="1" parent="X7ifO9zD-XdO2jN4TMSY-32">
          <mxGeometry width="170" height="40" as="geometry">
            <mxRectangle width="170" height="40" as="alternateBounds" />
          </mxGeometry>
        </mxCell>
        <mxCell id="X7ifO9zD-XdO2jN4TMSY-30" style="shape=tableRow;horizontal=0;startSize=0;swimlaneHead=0;swimlaneBody=0;strokeColor=inherit;top=0;left=0;bottom=0;right=0;collapsible=0;dropTarget=0;fillColor=none;points=[[0,0.5],[1,0.5]];portConstraint=eastwest;fontSize=16;" vertex="1" parent="X7ifO9zD-XdO2jN4TMSY-3">
          <mxGeometry y="160" width="170" height="40" as="geometry" />
        </mxCell>
        <mxCell id="X7ifO9zD-XdO2jN4TMSY-31" value="embedding 5" style="shape=partialRectangle;html=1;whiteSpace=wrap;connectable=0;strokeColor=#6c8ebf;overflow=hidden;fillColor=#dae8fc;top=0;left=0;bottom=0;right=0;pointerEvents=1;fontSize=16;" vertex="1" parent="X7ifO9zD-XdO2jN4TMSY-30">
          <mxGeometry width="170" height="40" as="geometry">
            <mxRectangle width="170" height="40" as="alternateBounds" />
          </mxGeometry>
        </mxCell>
        <mxCell id="X7ifO9zD-XdO2jN4TMSY-28" style="shape=tableRow;horizontal=0;startSize=0;swimlaneHead=0;swimlaneBody=0;strokeColor=inherit;top=0;left=0;bottom=0;right=0;collapsible=0;dropTarget=0;fillColor=none;points=[[0,0.5],[1,0.5]];portConstraint=eastwest;fontSize=16;" vertex="1" parent="X7ifO9zD-XdO2jN4TMSY-3">
          <mxGeometry y="200" width="170" height="40" as="geometry" />
        </mxCell>
        <mxCell id="X7ifO9zD-XdO2jN4TMSY-29" value="embedding 6" style="shape=partialRectangle;html=1;whiteSpace=wrap;connectable=0;strokeColor=#6c8ebf;overflow=hidden;fillColor=#dae8fc;top=0;left=0;bottom=0;right=0;pointerEvents=1;fontSize=16;" vertex="1" parent="X7ifO9zD-XdO2jN4TMSY-28">
          <mxGeometry width="170" height="40" as="geometry">
            <mxRectangle width="170" height="40" as="alternateBounds" />
          </mxGeometry>
        </mxCell>
        <mxCell id="X7ifO9zD-XdO2jN4TMSY-26" style="shape=tableRow;horizontal=0;startSize=0;swimlaneHead=0;swimlaneBody=0;strokeColor=inherit;top=0;left=0;bottom=0;right=0;collapsible=0;dropTarget=0;fillColor=none;points=[[0,0.5],[1,0.5]];portConstraint=eastwest;fontSize=16;" vertex="1" parent="X7ifO9zD-XdO2jN4TMSY-3">
          <mxGeometry y="240" width="170" height="40" as="geometry" />
        </mxCell>
        <mxCell id="X7ifO9zD-XdO2jN4TMSY-27" value="embedding 7" style="shape=partialRectangle;html=1;whiteSpace=wrap;connectable=0;strokeColor=#d6b656;overflow=hidden;fillColor=#fff2cc;top=0;left=0;bottom=0;right=0;pointerEvents=1;fontSize=16;" vertex="1" parent="X7ifO9zD-XdO2jN4TMSY-26">
          <mxGeometry width="170" height="40" as="geometry">
            <mxRectangle width="170" height="40" as="alternateBounds" />
          </mxGeometry>
        </mxCell>
        <mxCell id="X7ifO9zD-XdO2jN4TMSY-24" style="shape=tableRow;horizontal=0;startSize=0;swimlaneHead=0;swimlaneBody=0;strokeColor=inherit;top=0;left=0;bottom=0;right=0;collapsible=0;dropTarget=0;fillColor=none;points=[[0,0.5],[1,0.5]];portConstraint=eastwest;fontSize=16;" vertex="1" parent="X7ifO9zD-XdO2jN4TMSY-3">
          <mxGeometry y="280" width="170" height="40" as="geometry" />
        </mxCell>
        <mxCell id="X7ifO9zD-XdO2jN4TMSY-25" value="embedding 8" style="shape=partialRectangle;html=1;whiteSpace=wrap;connectable=0;strokeColor=#d6b656;overflow=hidden;fillColor=#fff2cc;top=0;left=0;bottom=0;right=0;pointerEvents=1;fontSize=16;" vertex="1" parent="X7ifO9zD-XdO2jN4TMSY-24">
          <mxGeometry width="170" height="40" as="geometry">
            <mxRectangle width="170" height="40" as="alternateBounds" />
          </mxGeometry>
        </mxCell>
        <mxCell id="X7ifO9zD-XdO2jN4TMSY-22" style="shape=tableRow;horizontal=0;startSize=0;swimlaneHead=0;swimlaneBody=0;strokeColor=inherit;top=0;left=0;bottom=0;right=0;collapsible=0;dropTarget=0;fillColor=none;points=[[0,0.5],[1,0.5]];portConstraint=eastwest;fontSize=16;" vertex="1" parent="X7ifO9zD-XdO2jN4TMSY-3">
          <mxGeometry y="320" width="170" height="40" as="geometry" />
        </mxCell>
        <mxCell id="X7ifO9zD-XdO2jN4TMSY-23" value="embedding 9" style="shape=partialRectangle;html=1;whiteSpace=wrap;connectable=0;strokeColor=#d6b656;overflow=hidden;fillColor=#fff2cc;top=0;left=0;bottom=0;right=0;pointerEvents=1;fontSize=16;" vertex="1" parent="X7ifO9zD-XdO2jN4TMSY-22">
          <mxGeometry width="170" height="40" as="geometry">
            <mxRectangle width="170" height="40" as="alternateBounds" />
          </mxGeometry>
        </mxCell>
        <mxCell id="X7ifO9zD-XdO2jN4TMSY-20" style="shape=tableRow;horizontal=0;startSize=0;swimlaneHead=0;swimlaneBody=0;strokeColor=inherit;top=0;left=0;bottom=0;right=0;collapsible=0;dropTarget=0;fillColor=none;points=[[0,0.5],[1,0.5]];portConstraint=eastwest;fontSize=16;" vertex="1" parent="X7ifO9zD-XdO2jN4TMSY-3">
          <mxGeometry y="360" width="170" height="40" as="geometry" />
        </mxCell>
        <mxCell id="X7ifO9zD-XdO2jN4TMSY-21" value="embedding 10" style="shape=partialRectangle;html=1;whiteSpace=wrap;connectable=0;strokeColor=#b85450;overflow=hidden;fillColor=#f8cecc;top=0;left=0;bottom=0;right=0;pointerEvents=1;fontSize=16;" vertex="1" parent="X7ifO9zD-XdO2jN4TMSY-20">
          <mxGeometry width="170" height="40" as="geometry">
            <mxRectangle width="170" height="40" as="alternateBounds" />
          </mxGeometry>
        </mxCell>
        <mxCell id="X7ifO9zD-XdO2jN4TMSY-18" style="shape=tableRow;horizontal=0;startSize=0;swimlaneHead=0;swimlaneBody=0;strokeColor=inherit;top=0;left=0;bottom=0;right=0;collapsible=0;dropTarget=0;fillColor=none;points=[[0,0.5],[1,0.5]];portConstraint=eastwest;fontSize=16;" vertex="1" parent="X7ifO9zD-XdO2jN4TMSY-3">
          <mxGeometry y="400" width="170" height="40" as="geometry" />
        </mxCell>
        <mxCell id="X7ifO9zD-XdO2jN4TMSY-19" value="embedding 11" style="shape=partialRectangle;html=1;whiteSpace=wrap;connectable=0;strokeColor=#b85450;overflow=hidden;fillColor=#f8cecc;top=0;left=0;bottom=0;right=0;pointerEvents=1;fontSize=16;" vertex="1" parent="X7ifO9zD-XdO2jN4TMSY-18">
          <mxGeometry width="170" height="40" as="geometry">
            <mxRectangle width="170" height="40" as="alternateBounds" />
          </mxGeometry>
        </mxCell>
        <mxCell id="X7ifO9zD-XdO2jN4TMSY-16" style="shape=tableRow;horizontal=0;startSize=0;swimlaneHead=0;swimlaneBody=0;strokeColor=inherit;top=0;left=0;bottom=0;right=0;collapsible=0;dropTarget=0;fillColor=none;points=[[0,0.5],[1,0.5]];portConstraint=eastwest;fontSize=16;" vertex="1" parent="X7ifO9zD-XdO2jN4TMSY-3">
          <mxGeometry y="440" width="170" height="40" as="geometry" />
        </mxCell>
        <mxCell id="X7ifO9zD-XdO2jN4TMSY-17" value="embedding 12" style="shape=partialRectangle;html=1;whiteSpace=wrap;connectable=0;strokeColor=#b85450;overflow=hidden;fillColor=#f8cecc;top=0;left=0;bottom=0;right=0;pointerEvents=1;fontSize=16;" vertex="1" parent="X7ifO9zD-XdO2jN4TMSY-16">
          <mxGeometry width="170" height="40" as="geometry">
            <mxRectangle width="170" height="40" as="alternateBounds" />
          </mxGeometry>
        </mxCell>
        <mxCell id="X7ifO9zD-XdO2jN4TMSY-90" value="" style="group" vertex="1" connectable="0" parent="X7ifO9zD-XdO2jN4TMSY-85">
          <mxGeometry x="15" width="140" height="60" as="geometry" />
        </mxCell>
        <mxCell id="X7ifO9zD-XdO2jN4TMSY-84" value="&lt;span style=&quot;font-size: 16px;&quot;&gt;Level 3&lt;/span&gt;" style="rounded=0;whiteSpace=wrap;html=1;" vertex="1" parent="X7ifO9zD-XdO2jN4TMSY-90">
          <mxGeometry width="140" height="30" as="geometry" />
        </mxCell>
        <mxCell id="X7ifO9zD-XdO2jN4TMSY-79" value="&lt;font style=&quot;font-size: 16px;&quot;&gt;Chunk Size = 128&lt;/font&gt;" style="rounded=0;whiteSpace=wrap;html=1;" vertex="1" parent="X7ifO9zD-XdO2jN4TMSY-90">
          <mxGeometry y="30" width="140" height="30" as="geometry" />
        </mxCell>
      </root>
    </mxGraphModel>
  </diagram>
</mxfile>
